<?xml version="1.0" encoding="utf-8"?>
<!-- Generator: Adobe Illustrator 17.0.0, SVG Export Plug-In . SVG Version: 6.00 Build 0)  -->
<!DOCTYPE svg PUBLIC "-//W3C//DTD SVG 1.1//EN" "http://www.w3.org/Graphics/SVG/1.1/DTD/svg11.dtd">
<svg version="1.1" id="Layer_1" xmlns="http://www.w3.org/2000/svg" xmlns:xlink="http://www.w3.org/1999/xlink" x="0px" y="0px"
	 width="50px" height="50px" viewBox="0 0 50 50" enable-background="new 0 0 50 50" xml:space="preserve">
<g>
	<path fill="#F9A252" d="M24.934,22.87L45.88,40.463c6.191,5.417,0,11.609-5.417,5.417L22.87,24.934
		c-2.064,1.29-4.902,1.548-7.223-0.774L1,9.255l1.548-1.548l13.357,12.067l0.258-0.258L4.096,6.159l2.064-2.064l13.357,12.067
		l0.258-0.258L7.707,2.548L9.255,1L24.16,15.647C26.482,17.969,26.224,20.806,24.934,22.87z"/>
	<path d="M23.628,23.073l0.458-0.732c1.101-1.761,1.287-4.064-0.63-5.984l-0.003-0.003L9.26,2.409L9.091,2.578l12.067,13.357
		l-1.612,1.612L6.189,5.48L5.48,6.19l12.067,13.357l-1.612,1.612L2.578,9.091L2.409,9.26l13.945,14.192l0.003,0.003
		c1.92,1.918,4.222,1.731,5.984,0.631l0.733-0.458L41.22,45.227c2.503,2.857,4.725,2.464,5.598,1.591
		c0.873-0.873,1.266-3.095-1.591-5.598L23.628,23.073z M45.88,40.463c6.191,5.417,0,11.609-5.417,5.417L22.87,24.934
		c-2.064,1.29-4.902,1.548-7.223-0.774L1,9.255l1.548-1.548l13.357,12.067l0.258-0.258L4.096,6.159l2.064-2.064l13.357,12.067
		l0.258-0.258L7.707,2.548L9.255,1L24.16,15.647c2.322,2.322,2.064,5.16,0.774,7.223L45.88,40.463z"/>
</g>
</svg>
