<?xml version="1.0" encoding="utf-8"?>
<!-- Generator: Adobe Illustrator 17.0.0, SVG Export Plug-In . SVG Version: 6.00 Build 0)  -->
<!DOCTYPE svg PUBLIC "-//W3C//DTD SVG 1.1//EN" "http://www.w3.org/Graphics/SVG/1.1/DTD/svg11.dtd">
<svg version="1.1" id="Layer_1" xmlns="http://www.w3.org/2000/svg" xmlns:xlink="http://www.w3.org/1999/xlink" x="0px" y="0px"
	 width="50px" height="50px" viewBox="-2.5 0 50 50" enable-background="new -2.5 0 50 50" xml:space="preserve">
<g>
	<path fill="#FFFFFF" d="M22.434,22.87L43.38,40.463c6.191,5.417,0,11.609-5.417,5.417L20.37,24.934
		c-2.064,1.29-4.901,1.548-7.223-0.774L-1.5,9.255l1.548-1.548l13.357,12.067l0.258-0.258L1.596,6.159L3.66,4.096l13.357,12.067
		l0.258-0.258L5.207,2.548L6.755,1L21.66,15.647C23.982,17.969,23.724,20.806,22.434,22.87z"/>
	<path d="M21.128,23.073l0.458-0.732c1.101-1.761,1.287-4.064-0.63-5.984l-0.003-0.003L6.761,2.41L6.591,2.579l12.067,13.357
		l-1.612,1.612L3.69,5.481L2.98,6.19l12.067,13.357l-1.612,1.612L0.078,9.092l-0.169,0.169l13.945,14.192l0.003,0.003
		c1.92,1.918,4.222,1.731,5.984,0.631l0.733-0.458L38.72,45.228c2.503,2.857,4.725,2.464,5.598,1.591
		c0.873-0.873,1.266-3.095-1.591-5.598L21.128,23.073z M43.38,40.464c6.191,5.417,0,11.609-5.417,5.417L20.37,24.935
		c-2.064,1.29-4.901,1.548-7.223-0.774L-1.5,9.256l1.548-1.548l13.357,12.067l0.258-0.258L1.596,6.16L3.66,4.097l13.357,12.067
		l0.258-0.258L5.207,2.549l1.548-1.548L21.66,15.648c2.322,2.322,2.064,5.16,0.774,7.223L43.38,40.464z"/>
</g>
</svg>
