<svg width="124" height="33" viewBox="0 0 124 33" fill="none" xmlns="http://www.w3.org/2000/svg">
<path d="M46.2108 6.75H39.3718C38.9038 6.75 38.5058 7.09 38.4328 7.552L35.6668 25.089C35.6118 25.435 35.8798 25.747 36.2308 25.747H39.4958C39.9638 25.747 40.3618 25.407 40.4348 24.944L41.1808 20.214C41.2528 19.751 41.6518 19.411 42.1188 19.411H44.2838C48.7888 19.411 51.3888 17.231 52.0678 12.911C52.3738 11.021 52.0808 9.536 51.1958 8.496C50.2238 7.354 48.4998 6.75 46.2108 6.75ZM46.9998 13.155C46.6258 15.609 44.7508 15.609 42.9378 15.609H41.9058L42.6298 11.026C42.6728 10.749 42.9128 10.545 43.1928 10.545H43.6658C44.9008 10.545 46.0658 10.545 46.6678 11.249C47.0268 11.669 47.1368 12.293 46.9998 13.155Z" fill="#253B80"/>
<path d="M66.654 13.0736H63.379C63.1 13.0736 62.859 13.2776 62.816 13.5546L62.671 14.4706L62.442 14.1386C61.733 13.1096 60.152 12.7656 58.574 12.7656C54.955 12.7656 51.864 15.5066 51.262 19.3516C50.949 21.2696 51.394 23.1036 52.482 24.3826C53.48 25.5586 54.908 26.0486 56.607 26.0486C59.523 26.0486 61.14 24.1736 61.14 24.1736L60.994 25.0836C60.939 25.4316 61.207 25.7436 61.556 25.7436H64.506C64.975 25.7436 65.371 25.4036 65.445 24.9406L67.215 13.7316C67.271 13.3866 67.004 13.0736 66.654 13.0736ZM62.089 19.4476C61.773 21.3186 60.288 22.5746 58.394 22.5746C57.443 22.5746 56.683 22.2696 56.195 21.6916C55.711 21.1176 55.527 20.3006 55.681 19.3906C55.976 17.5356 57.486 16.2386 59.351 16.2386C60.281 16.2386 61.037 16.5476 61.535 17.1306C62.034 17.7196 62.232 18.5416 62.089 19.4476Z" fill="#253B80"/>
<path d="M84.096 13.0742H80.805C80.491 13.0742 80.196 13.2302 80.018 13.4912L75.479 20.1772L73.555 13.7522C73.434 13.3502 73.063 13.0742 72.643 13.0742H69.409C69.016 13.0742 68.743 13.4582 68.868 13.8282L72.493 24.4662L69.085 29.2772C68.817 29.6562 69.087 30.1772 69.55 30.1772H72.837C73.149 30.1772 73.441 30.0252 73.618 29.7692L84.564 13.9692C84.826 13.5912 84.557 13.0742 84.096 13.0742Z" fill="#253B80"/>
<path d="M94.9921 6.75H88.1521C87.6851 6.75 87.2871 7.09 87.2141 7.552L84.4481 25.089C84.3931 25.435 84.6611 25.747 85.0101 25.747H88.5201C88.8461 25.747 89.1251 25.509 89.1761 25.185L89.9611 20.214C90.0331 19.751 90.4321 19.411 90.8991 19.411H93.0631C97.5691 19.411 100.168 17.231 100.848 12.911C101.155 11.021 100.86 9.536 99.9751 8.496C99.0041 7.354 97.2811 6.75 94.9921 6.75ZM95.7811 13.155C95.4081 15.609 93.5331 15.609 91.7191 15.609H90.6881L91.4131 11.026C91.4561 10.749 91.6941 10.545 91.9751 10.545H92.4481C93.6821 10.545 94.8481 10.545 95.4501 11.249C95.8091 11.669 95.9181 12.293 95.7811 13.155Z" fill="#179BD7"/>
<path d="M115.434 13.0736H112.161C111.88 13.0736 111.641 13.2776 111.599 13.5546L111.454 14.4706L111.224 14.1386C110.515 13.1096 108.935 12.7656 107.357 12.7656C103.738 12.7656 100.648 15.5066 100.046 19.3516C99.7339 21.2696 100.177 23.1036 101.265 24.3826C102.265 25.5586 103.691 26.0486 105.39 26.0486C108.306 26.0486 109.923 24.1736 109.923 24.1736L109.777 25.0836C109.722 25.4316 109.99 25.7436 110.341 25.7436H113.29C113.757 25.7436 114.155 25.4036 114.228 24.9406L115.999 13.7316C116.053 13.3866 115.785 13.0736 115.434 13.0736ZM110.869 19.4476C110.555 21.3186 109.068 22.5746 107.174 22.5746C106.225 22.5746 105.463 22.2696 104.975 21.6916C104.491 21.1176 104.309 20.3006 104.461 19.3906C104.758 17.5356 106.266 16.2386 108.131 16.2386C109.061 16.2386 109.817 16.5476 110.315 17.1306C110.816 17.7196 111.014 18.5416 110.869 19.4476Z" fill="#179BD7"/>
<path d="M119.295 7.22809L116.488 25.0861C116.433 25.4321 116.701 25.7441 117.05 25.7441H119.872C120.341 25.7441 120.739 25.4041 120.811 24.9411L123.579 7.40509C123.634 7.05909 123.366 6.74609 123.017 6.74609H119.857C119.578 6.74709 119.338 6.95109 119.295 7.22809Z" fill="#179BD7"/>
<path d="M7.26604 29.1534L7.78904 25.8314L6.62404 25.8044H1.06104L4.92704 1.29144C4.93904 1.21744 4.97804 1.14844 5.03504 1.09944C5.09204 1.05044 5.16504 1.02344 5.24104 1.02344H14.621C17.735 1.02344 19.884 1.67144 21.006 2.95044C21.532 3.55044 21.867 4.17744 22.029 4.86744C22.199 5.59144 22.202 6.45644 22.036 7.51144L22.024 7.58844V8.26444L22.55 8.56244C22.993 8.79744 23.345 9.06644 23.615 9.37444C24.065 9.88744 24.356 10.5394 24.479 11.3124C24.606 12.1074 24.564 13.0534 24.356 14.1244C24.116 15.3564 23.728 16.4294 23.204 17.3074C22.722 18.1164 22.108 18.7874 21.379 19.3074C20.683 19.8014 19.856 20.1764 18.921 20.4164C18.015 20.6524 16.982 20.7714 15.849 20.7714H15.119C14.597 20.7714 14.09 20.9594 13.692 21.2964C13.293 21.6404 13.029 22.1104 12.948 22.6244L12.893 22.9234L11.969 28.7784L11.927 28.9934C11.916 29.0614 11.897 29.0954 11.869 29.1184C11.844 29.1394 11.808 29.1534 11.773 29.1534H7.26604Z" fill="#253B80"/>
<path d="M23.0481 7.66797C23.0201 7.84697 22.9881 8.02997 22.9521 8.21797C21.7151 14.569 17.4831 16.763 12.0781 16.763H9.32614C8.66514 16.763 8.10814 17.243 8.00514 17.895L6.59614 26.831L6.19714 29.364C6.13014 29.792 6.46014 30.178 6.89214 30.178H11.7731C12.3511 30.178 12.8421 29.758 12.9331 29.188L12.9811 28.94L13.9001 23.108L13.9591 22.788C14.0491 22.216 14.5411 21.796 15.1191 21.796H15.8491C20.5781 21.796 24.2801 19.876 25.3621 14.32C25.8141 11.999 25.5801 10.061 24.3841 8.69797C24.0221 8.28697 23.5731 7.94597 23.0481 7.66797Z" fill="#179BD7"/>
<path d="M21.7539 7.15103C21.5649 7.09603 21.3699 7.04603 21.1699 7.00103C20.9689 6.95703 20.7629 6.91803 20.5509 6.88403C19.8089 6.76403 18.9959 6.70703 18.1249 6.70703H10.7729C10.5919 6.70703 10.4199 6.74803 10.2659 6.82203C9.92688 6.98503 9.67488 7.30603 9.61388 7.69903L8.04988 17.605L8.00488 17.894C8.10788 17.242 8.66488 16.762 9.32588 16.762H12.0779C17.4829 16.762 21.7149 14.567 22.9519 8.21703C22.9889 8.02903 23.0199 7.84603 23.0479 7.66703C22.7349 7.50103 22.3959 7.35903 22.0309 7.23803C21.9409 7.20803 21.8479 7.17903 21.7539 7.15103Z" fill="#222D65"/>
<path d="M9.61399 7.699C9.67499 7.306 9.92699 6.985 10.266 6.823C10.421 6.749 10.592 6.708 10.773 6.708H18.125C18.996 6.708 19.809 6.765 20.551 6.885C20.763 6.919 20.969 6.958 21.17 7.002C21.37 7.047 21.565 7.097 21.754 7.152C21.848 7.18 21.941 7.209 22.032 7.238C22.397 7.359 22.736 7.502 23.049 7.667C23.417 5.32 23.046 3.722 21.777 2.275C20.378 0.682 17.853 0 14.622 0H5.24199C4.58199 0 4.01899 0.48 3.91699 1.133L0.00998882 25.898C-0.0670112 26.388 0.310989 26.83 0.804989 26.83H6.59599L8.04999 17.605L9.61399 7.699Z" fill="#253B80"/>
</svg>
