<svg width="1284" height="288" viewBox="0 0 1284 288" fill="none" xmlns="http://www.w3.org/2000/svg">
<path d="M147 -1.52588e-05C68.6 -1.52588e-05 0.2 39.2 0.2 96.4C0.2 125.2 18.2 144.8 55.8 144.8H240.6C270.2 144.8 277.8 158 277.8 172.4C277.8 188 266.2 198.4 241.4 198.4H52.2C21.4 198.4 1.8 193.2 1.8 168H0.2C0.2 242 64.6 288 151 288C237 288 296.2 247.2 296.2 190C296.2 161.2 278.2 143.2 240.6 143.2H55.8C26.2 143.2 18.6 130 18.6 115.6C18.6 100 30.2 89.6 55 89.6H243.4C274.2 89.6 293.8 94.8 293.8 120H295.4C295.4 46 234.2 -1.52588e-05 147 -1.52588e-05ZM340.238 3.99998H338.638V284H340.238V204C340.238 192.8 343.838 187.2 355.438 187.2H593.038C604.638 187.2 608.238 192.8 608.238 204V284H609.838V3.99998H608.238V84.8C608.238 96 604.638 101.6 593.038 101.6H355.438C343.838 101.6 340.238 96 340.238 84.8V3.99998ZM956.075 144C956.075 72 899.675 -1.52588e-05 804.075 -1.52588e-05C708.475 -1.52588e-05 652.075 72 652.075 144C652.075 216 708.475 288 804.075 288C899.675 288 956.075 216 956.075 144ZM954.475 144C954.475 180.8 932.075 198.4 895.675 198.4H712.475C676.075 198.4 653.675 180.8 653.675 144C653.675 107.2 676.075 89.6 712.475 89.6H895.675C932.075 89.6 954.475 107.2 954.475 144ZM1205.93 144.8C1250.73 144.8 1283.93 117.2 1283.93 75.2C1283.93 24 1248.33 3.99998 1189.93 3.99998H998.325V284H999.925V161.6C999.925 150.4 1003.53 144.8 1015.13 144.8H1205.93ZM1203.53 143.2H1015.13C1003.53 143.2 999.925 137.6 999.925 126.4V104.8C999.925 93.2 1005.53 89.6 1016.73 89.6H1214.33C1239.93 89.6 1251.93 100 1251.93 114.8C1251.93 134.8 1229.53 143.2 1203.53 143.2Z" fill="black"/>
</svg>
